<?xml version="1.0" encoding="UTF-8" standalone="no"?>
<svg
   xmlns:dc="http://purl.org/dc/elements/1.1/"
   xmlns:cc="http://creativecommons.org/ns#"
   xmlns:rdf="http://www.w3.org/1999/02/22-rdf-syntax-ns#"
   xmlns:svg="http://www.w3.org/2000/svg"
   xmlns="http://www.w3.org/2000/svg"
   xmlns:sodipodi="http://sodipodi.sourceforge.net/DTD/sodipodi-0.dtd"
   xmlns:inkscape="http://www.inkscape.org/namespaces/inkscape"
   width="116pt"
   height="149pt"
   viewBox="0 0 116 149"
   version="1.1"
   id="svg3197"
   inkscape:version="0.48.4 r9939"
   sodipodi:docname="flag-alliance.svg">
  <metadata
     id="metadata3233">
    <rdf:RDF>
      <cc:Work
         rdf:about="">
        <dc:format>image/svg+xml</dc:format>
        <dc:type
           rdf:resource="http://purl.org/dc/dcmitype/StillImage" />
        <dc:title></dc:title>
      </cc:Work>
    </rdf:RDF>
  </metadata>
  <defs
     id="defs3231" />
  <sodipodi:namedview
     pagecolor="#ffffff"
     bordercolor="#666666"
     borderopacity="1"
     objecttolerance="10"
     gridtolerance="10"
     guidetolerance="10"
     inkscape:pageopacity="0"
     inkscape:pageshadow="2"
     inkscape:window-width="1723"
     inkscape:window-height="1053"
     id="namedview3229"
     showgrid="false"
     inkscape:zoom="4.6872483"
     inkscape:cx="72.5"
     inkscape:cy="93.125"
     inkscape:window-x="112"
     inkscape:window-y="0"
     inkscape:window-maximized="0"
     inkscape:current-layer="svg3197" />
  <path
     d=" M 52.95 8.98 C 56.89 8.67 55.58 2.00 58.77 2.10 C 59.87 5.33 59.78 11.96 65.65 8.54 C 67.15 9.37 75.52 3.00 73.81 7.69 C 70.68 9.45 64.28 9.36 67.05 15.13 C 72.59 12.60 78.83 12.81 84.82 12.37 C 88.08 14.73 80.93 13.62 81.07 16.85 C 83.63 19.42 87.90 17.36 91.14 18.13 C 89.42 21.89 81.28 17.01 82.01 21.93 C 85.20 21.62 88.60 20.26 91.68 21.36 C 93.27 22.78 96.30 23.37 96.09 25.97 C 93.97 24.55 89.14 22.48 88.05 25.87 C 94.80 31.32 103.45 23.84 110.74 27.24 C 111.65 28.06 112.55 28.95 113.09 30.07 C 110.40 29.35 105.90 26.14 104.10 29.65 C 107.56 30.44 107.35 33.55 107.31 36.70 C 109.80 38.80 110.25 42.13 112.59 44.35 C 114.04 48.96 117.90 56.40 112.37 59.29 C 111.80 61.89 109.13 63.87 110.31 66.71 C 112.47 74.18 110.39 81.50 109.03 88.76 C 113.05 88.13 115.14 93.48 111.77 95.88 C 106.49 98.72 105.78 91.40 101.30 91.90 L 101.39 91.12 C 102.06 87.28 100.39 82.94 97.76 80.10 C 94.72 79.58 91.81 80.31 88.88 80.86 C 90.36 79.00 92.02 77.13 94.32 76.27 C 98.57 75.42 102.13 77.94 105.96 79.11 C 106.29 71.43 106.29 62.83 101.82 56.17 C 99.68 52.97 95.36 52.49 92.92 49.96 C 94.56 45.83 99.56 49.64 102.70 49.47 C 104.29 48.34 105.91 47.24 107.79 46.61 C 105.57 40.65 100.55 36.42 94.79 34.16 C 97.17 33.06 100.37 33.15 101.05 30.05 C 96.22 30.98 91.07 32.70 86.26 30.75 C 84.06 29.14 84.13 26.42 84.90 24.07 C 82.92 24.99 81.04 26.13 78.99 26.90 C 76.50 25.97 73.53 24.91 73.01 21.95 C 73.22 20.13 74.28 18.57 74.89 16.88 C 69.75 17.20 64.98 19.24 60.23 21.06 C 60.03 18.36 60.34 14.68 58.00 12.65 C 55.29 14.80 56.19 18.24 56.89 21.10 C 51.52 20.12 46.78 16.68 41.11 16.89 C 41.78 19.06 44.35 21.93 41.81 23.81 C 39.37 27.54 34.33 25.98 31.09 24.14 C 31.82 26.33 32.17 29.59 29.33 30.36 C 24.17 33.43 18.32 30.64 13.24 28.72 C 11.37 27.63 9.21 28.38 7.19 28.43 C 6.23 30.04 5.13 31.56 2.96 31.02 C 2.64 29.26 4.07 28.27 5.28 27.32 C 12.55 24.08 20.55 29.93 27.89 26.79 C 29.64 21.48 22.84 25.33 19.89 24.99 C 22.25 21.96 27.24 20.64 30.91 21.20 C 32.62 21.51 36.02 23.30 34.96 20.06 C 32.31 20.03 29.68 19.50 27.03 19.67 C 26.09 15.24 33.30 19.62 35.36 17.33 C 36.84 16.56 34.84 15.38 34.30 14.73 C 33.14 13.19 29.27 15.18 30.00 12.28 C 35.97 12.91 42.35 12.04 47.84 14.79 C 48.92 13.66 51.59 11.76 48.35 10.66 C 46.68 6.70 41.36 9.62 39.88 6.02 C 44.46 5.92 48.62 7.97 52.95 8.98 Z"
     id="path3201"
     fill="#b47912" />
  <path
     d=" M 56.89 21.10 C 56.19 18.24 55.29 14.80 58.00 12.65 C 60.34 14.68 60.03 18.36 60.23 21.06 C 64.98 19.24 69.75 17.20 74.89 16.88 C 74.28 18.57 73.22 20.13 73.01 21.95 C 73.53 24.91 76.50 25.97 78.99 26.90 C 81.04 26.13 82.92 24.99 84.90 24.07 C 84.13 26.42 84.06 29.14 86.26 30.75 C 91.07 32.70 96.22 30.98 101.05 30.05 C 100.37 33.15 97.17 33.06 94.79 34.16 C 100.55 36.42 105.57 40.65 107.79 46.61 C 105.91 47.24 104.29 48.34 102.70 49.47 C 99.56 49.64 94.56 45.83 92.92 49.96 C 95.36 52.49 99.68 52.97 101.82 56.17 C 106.29 62.83 106.29 71.43 105.96 79.11 C 102.13 77.94 98.57 75.42 94.32 76.27 C 92.02 77.13 90.36 79.00 88.88 80.86 C 91.81 80.31 94.72 79.58 97.76 80.10 C 100.39 82.94 102.06 87.28 101.39 91.12 C 100.54 88.83 99.79 86.49 98.68 84.31 C 96.25 82.49 90.64 81.68 90.96 85.87 C 92.46 86.22 95.47 86.92 96.97 87.27 C 96.02 97.12 92.36 106.80 86.78 114.97 C 83.19 111.92 79.94 107.67 75.00 106.97 C 73.17 106.55 71.54 108.16 71.99 109.99 C 71.20 112.54 74.38 112.78 76.07 112.16 C 76.09 112.63 76.14 113.56 76.16 114.03 C 74.73 124.15 67.07 131.62 58.92 137.02 C 48.48 133.83 42.45 123.52 39.35 113.69 L 39.07 112.97 L 40.18 112.93 C 43.47 113.79 44.68 110.72 44.00 107.99 C 37.64 106.15 33.84 112.01 29.13 114.91 C 23.64 107.09 20.36 97.57 19.33 88.07 C 21.05 86.92 23.25 86.94 25.02 85.87 C 25.21 84.58 24.41 82.92 22.93 83.00 C 19.31 82.44 16.94 85.64 14.87 88.05 C 15.11 85.11 16.52 82.42 18.21 80.06 C 21.23 79.55 24.15 80.31 27.05 80.90 C 24.15 73.87 15.37 76.53 10.02 79.11 C 10.07 71.46 9.59 62.80 14.18 56.17 C 16.64 53.23 20.34 52.11 23.39 49.99 C 20.58 46.51 16.74 49.28 13.33 49.79 C 12.24 47.75 10.38 46.87 8.11 46.71 C 10.55 41.12 14.94 36.01 21.10 34.64 C 18.60 32.73 15.59 31.60 13.01 29.78 L 13.24 28.72 C 18.32 30.64 24.17 33.43 29.33 30.36 C 32.17 29.59 31.82 26.33 31.09 24.14 C 34.33 25.98 39.37 27.54 41.81 23.81 C 44.35 21.93 41.78 19.06 41.11 16.89 C 46.78 16.68 51.52 20.12 56.89 21.10 Z"
     id="path3203"
     fill="#002853" />
  <path
     d=" M 9.20 33.25 C 10.40 32.02 11.54 30.69 13.01 29.78 C 15.59 31.60 18.60 32.73 21.10 34.64 C 14.94 36.01 10.55 41.12 8.11 46.71 C 10.38 46.87 12.24 47.75 13.33 49.79 C 16.74 49.28 20.58 46.51 23.39 49.99 C 20.34 52.11 16.64 53.23 14.18 56.17 C 9.59 62.80 10.07 71.46 10.02 79.11 C 15.37 76.53 24.15 73.87 27.05 80.90 C 24.15 80.31 21.23 79.55 18.21 80.06 C 16.52 82.42 15.11 85.11 14.87 88.05 C 16.94 85.64 19.31 82.44 22.93 83.00 C 24.41 82.92 25.21 84.58 25.02 85.87 C 23.25 86.94 21.05 86.92 19.33 88.07 C 20.36 97.57 23.64 107.09 29.13 114.91 C 33.84 112.01 37.64 106.15 44.00 107.99 C 44.68 110.72 43.47 113.79 40.18 112.93 C 39.08 110.27 35.74 111.73 34.25 113.25 C 32.59 117.97 33.26 123.08 32.93 127.99 C 32.48 127.98 31.58 127.96 31.14 127.95 C 30.87 121.39 27.96 114.57 22.17 111.08 C 21.29 112.21 21.05 114.14 19.27 114.08 C 20.02 109.33 19.41 104.61 17.76 100.12 C 14.29 98.15 13.78 104.11 16.82 104.31 C 18.26 106.99 13.70 106.39 13.56 104.35 C 12.94 102.15 10.56 104.23 9.07 104.20 C 8.76 106.23 9.58 108.15 9.97 110.11 C 8.44 108.71 5.25 107.37 6.77 104.91 C 7.04 100.64 15.33 101.13 13.23 96.35 C 16.93 95.67 14.64 92.59 15.67 90.10 C 15.34 89.83 14.66 89.29 14.33 89.03 C 13.64 91.81 12.05 94.09 9.80 95.86 C 6.03 97.91 4.30 94.68 2.17 92.79 C 3.23 90.81 4.34 88.63 6.93 88.75 C 6.67 81.16 4.49 73.62 5.96 66.00 C 6.50 61.70 3.10 58.31 1.03 54.94 C 2.00 48.71 3.67 41.92 8.75 37.74 C 10.57 36.71 8.55 34.77 9.20 33.25 Z"
     id="path3205"
     fill="#b47912" />
  <path
     d=" M 54.14 31.05 C 59.09 29.55 53.37 38.75 58.00 38.96 C 62.48 38.77 57.41 30.10 61.78 31.16 C 62.68 34.15 64.37 36.92 64.99 39.95 C 63.04 44.98 55.48 46.37 52.14 41.78 C 49.95 37.30 55.97 35.52 54.14 31.05 Z"
     id="path3207"
     fill="#b47912" />
  <path
     d=" M 75.28 36.28 C 77.46 35.31 78.86 38.78 79.95 40.03 C 82.38 43.75 85.49 50.37 80.25 53.27 C 77.13 57.00 69.56 56.73 72.10 63.82 C 74.70 66.27 77.87 68.17 79.71 71.33 C 81.71 79.66 75.70 87.81 68.73 91.72 C 62.98 93.36 59.53 86.85 59.00 82.05 C 61.05 77.64 64.31 73.91 66.74 69.71 C 67.12 63.06 63.95 57.07 61.92 50.97 C 65.99 51.10 69.54 53.93 73.81 52.92 C 75.13 49.69 76.27 46.39 76.98 42.97 C 71.40 42.12 68.15 48.27 62.99 49.07 C 63.09 42.79 71.08 39.81 75.28 36.28 Z"
     id="path3209"
     fill="#b47912" />
  <path
     d=" M 39.23 37.18 C 44.25 35.93 47.64 41.35 51.29 43.70 C 53.26 44.83 53.12 47.10 52.99 49.09 C 48.38 47.81 45.12 42.83 40.01 42.95 C 38.53 47.32 41.16 51.10 44.17 53.75 C 47.51 52.96 50.58 51.05 54.06 50.97 C 52.78 57.04 49.39 62.61 49.04 68.94 C 51.31 72.61 53.75 76.22 56.23 79.77 C 59.21 85.26 52.34 95.07 46.29 90.68 C 40.15 87.27 35.68 80.22 36.00 73.03 C 37.28 69.23 40.66 66.87 43.87 64.76 C 48.96 54.03 29.70 56.67 33.34 46.32 C 34.95 43.08 36.37 39.55 39.23 37.18 Z"
     id="path3211"
     fill="#b47912" />
  <path
     d=" M 56.22 51.24 L 57.06 50.92 C 56.82 54.36 55.22 57.54 54.92 60.98 C 56.45 60.98 59.50 60.98 61.03 60.99 C 61.16 57.51 59.59 54.31 59.00 50.95 C 62.33 53.21 63.13 58.39 64.55 62.23 C 64.88 67.90 56.23 63.80 53.19 64.88 C 49.79 60.80 55.18 55.38 56.22 51.24 Z"
     id="path3213"
     fill="#b47912" />
  <path
     d=" M 2.15 66.14 C 4.04 65.86 4.90 69.61 3.04 70.00 C 0.87 70.23 3.26 74.26 0.93 74.04 C 2.23 71.97 -0.44 67.84 2.15 66.14 Z"
     id="path3215"
     fill="#b47912" />
  <path
     d=" M 50.99 66.03 C 55.60 66.05 60.24 65.72 64.85 66.14 C 67.15 70.89 61.44 75.19 58.78 78.84 C 58.38 78.86 57.58 78.89 57.18 78.90 C 54.76 74.87 50.44 71.09 50.99 66.03 Z"
     id="path3217"
     fill="#b47912" />
  <path
     d=" M 112.09 67.19 C 113.95 64.50 115.61 67.37 116.00 69.40 L 116.00 74.51 C 113.50 73.03 113.17 69.68 112.09 67.19 Z"
     id="path3219"
     fill="#b47912" />
  <path
     d=" M 90.96 85.87 C 90.64 81.68 96.25 82.49 98.68 84.31 C 99.79 86.49 100.54 88.83 101.39 91.12 L 101.30 91.90 C 101.12 93.17 101.01 94.45 100.98 95.73 C 102.39 95.33 104.36 95.41 105.13 96.85 C 104.31 96.93 102.68 97.10 101.87 97.18 C 102.99 98.70 104.37 99.97 105.99 100.99 C 110.89 102.17 111.12 112.21 104.96 110.01 C 107.86 107.63 107.82 102.60 103.19 103.06 C 102.35 104.92 101.32 106.62 98.95 106.03 C 99.02 103.64 102.22 102.93 102.07 100.25 C 94.90 99.53 95.80 109.39 97.02 114.13 C 95.62 113.07 94.98 110.27 93.19 110.26 C 88.58 114.73 86.85 121.32 84.14 126.96 C 83.15 123.71 83.68 120.37 83.95 117.06 C 83.06 115.51 82.11 114.01 81.65 112.26 C 79.82 111.43 77.92 111.33 76.07 112.16 C 74.38 112.78 71.20 112.54 71.99 109.99 C 71.54 108.16 73.17 106.55 75.00 106.97 C 79.94 107.67 83.19 111.92 86.78 114.97 C 92.36 106.80 96.02 97.12 96.97 87.27 C 95.47 86.92 92.46 86.22 90.96 85.87 Z"
     id="path3221"
     fill="#b47912" />
  <path
     d=" M 57.37 90.29 C 59.90 89.17 59.04 93.58 60.99 94.05 C 63.38 95.47 66.33 94.69 68.99 95.13 C 70.93 101.48 62.81 104.00 63.79 110.12 C 62.11 109.21 61.96 106.59 60.14 106.05 C 58.59 107.81 60.28 112.55 57.19 111.94 C 56.97 109.95 56.69 107.95 55.84 106.12 C 52.92 105.12 54.74 109.50 52.22 110.12 C 53.18 104.00 45.10 101.49 46.99 95.14 C 51.70 96.63 55.49 94.29 57.37 90.29 Z"
     id="path3223"
     fill="#b47912" />
  <path
     d=" M 37.38 115.15 C 37.87 114.78 38.86 114.05 39.35 113.69 C 42.45 123.52 48.48 133.83 58.92 137.02 C 67.07 131.62 74.73 124.15 76.16 114.03 C 79.28 114.02 80.27 118.27 81.46 120.66 C 83.53 124.09 79.22 126.34 76.86 127.96 C 77.47 125.55 79.27 123.48 79.02 120.89 C 75.77 122.67 74.15 126.28 73.43 129.75 C 71.80 132.40 67.99 133.84 69.97 138.02 C 69.85 139.50 69.38 141.19 68.18 142.13 C 67.80 140.47 68.42 138.35 66.87 137.19 C 64.71 137.71 62.59 138.44 61.10 140.17 C 62.75 142.62 65.52 144.76 65.09 148.11 L 64.37 147.69 C 62.97 145.84 61.74 142.73 58.97 143.06 C 55.38 143.24 54.16 146.99 51.22 148.09 C 51.00 144.97 52.79 142.46 54.88 140.35 C 52.60 139.89 51.41 136.19 48.93 137.85 C 46.84 138.52 49.04 141.52 48.96 143.11 C 44.49 141.26 46.66 136.15 45.72 132.38 C 42.94 131.24 43.44 127.54 41.29 125.73 C 39.61 124.43 39.78 119.20 37.13 122.09 C 38.08 123.96 39.21 125.91 37.92 127.95 C 35.77 126.29 35.22 122.80 34.27 120.22 C 35.45 118.60 38.26 117.50 37.38 115.15 Z"
     id="path3225"
     fill="#b47912" />
</svg>
